PathFileType	4	(X/Y/Z)	FAILT01_SDP01_markers.trc
DataRate	CameraRate	NumFrames	NumMarkers	Units	OrigDataRate	OrigDataStartFrame	OrigNumFrames
100	100	4	59	mm	100	279	446
Frame#	Time	RSH			LSH			C7			LELB			LWR			RELB			RWR			RASI			LASI			SACR			P1			P2			P3			LTHLP			LTHLD			LTHAP			LTHAD			LLEPI			LPAT			LTIAP			LTIAD			LTILAT			LLMAL			LHEEL			LMFS			LMFL			LP5MT			LP1MT			LTOE			RTHLP			RTHLD			RTHAP			RTHAD			RLEPI			RPAT			RTIAP			RTIAD			RTILAT			RLMAL			RHEEL			RMFS			RMFL			RP5MT			RP1MT			RTOE			P4			*46			*47			*48			*49			*50			*51			*52			*53			*54			*55			*56			*57			*58			
		X1	Y1	Z1	X2	Y2	Z2	X3	Y3	Z3	X4	Y4	Z4	X5	Y5	Z5	X6	Y6	Z6	X7	Y7	Z7	X8	Y8	Z8	X9	Y9	Z9	X10	Y10	Z10	X11	Y11	Z11	X12	Y12	Z12	X13	Y13	Z13	X14	Y14	Z14	X15	Y15	Z15	X16	Y16	Z16	X17	Y17	Z17	X18	Y18	Z18	X19	Y19	Z19	X20	Y20	Z20	X21	Y21	Z21	X22	Y22	Z22	X23	Y23	Z23	X24	Y24	Z24	X25	Y25	Z25	X26	Y26	Z26	X27	Y27	Z27	X28	Y28	Z28	X29	Y29	Z29	X30	Y30	Z30	X31	Y31	Z31	X32	Y32	Z32	X33	Y33	Z33	X34	Y34	Z34	X35	Y35	Z35	X36	Y36	Z36	X37	Y37	Z37	X38	Y38	Z38	X39	Y39	Z39	X40	Y40	Z40	X41	Y41	Z41	X42	Y42	Z42	X43	Y43	Z43	X44	Y44	Z44	X45	Y45	Z45	X46	Y46	Z46	X47	Y47	Z47	X48	Y48	Z48	X49	Y49	Z49	X50	Y50	Z50	X51	Y51	Z51	X52	Y52	Z52	X53	Y53	Z53	X54	Y54	Z54	X55	Y55	Z55	X56	Y56	Z56	X57	Y57	Z57	X58	Y58	Z58	X59	Y59	Z59
279	        2.7799999714	    -1217.6266312599	     1340.6972885132	      300.5963191390	    -1270.9285020828	     1365.2267456055	      572.3981410265	    -1183.1345558167	     1409.0987443924	      439.9430453777	    -1392.4340009689	     1092.5419330597	      547.8876680136	    -1357.4752807617	     1222.8058576584	      361.5296036005	    -1399.0532159805	     1137.6211643219	      276.6656950116	    -1391.3923501968	     1228.9152145386	      496.1282461882	    -1267.4865722656	      905.8957099915	      337.7413339913	    -1285.6959700584	      888.6354565620	      556.1071783304	    -1105.8720946312	      991.5864467621	      462.1632024646	    -1112.2060418129	      987.5004887581	      513.7583315372	    -1099.5381474495	      995.6725239754	      410.5680827051	    -1077.6666402817	      931.5747618675	      464.7005796432	    -1229.5855283737	      660.5035662651	      624.8966157436	    -1220.4771041870	      559.7590804100	      614.6144866943	    -1308.5645437241	      659.8557829857	      530.9660285711	    -1304.2141199112	      553.0075430870	      530.3774476051	    -1210.0079655647	      438.7719035149	      605.0382554531	    -1276.7427563667	      406.0988724232	      531.9946706295	    -1091.3415551186	      321.4197456837	      552.7854412794	     -986.1798286438	      282.3338806629	      564.2243325710	    -1031.6033363342	      339.7482335567	      629.8781335354	     -862.7322912216	      261.7027461529	      629.5889317989	     -801.3390302658	      309.1207742691	      590.5008614063	     -872.6537227631	      178.2618761063	      572.3779052496	     -848.7063050270	      193.6649084091	      627.4686902761	     -823.7616419792	      138.1148248911	      659.1532528400	     -828.3159732819	      122.8830218315	      533.1317931414	     -867.8929209709	       92.6330983639	      563.1365031004	    -1258.8323950768	      698.2375979424	      264.9685516953	    -1307.7907562256	      608.0468893051	      285.7135832310	    -1352.1714210510	      737.7783656120	      372.2540736198	    -1383.1276893616	      649.2456197739	      375.5597425625	    -1359.8836660385	      503.2902359962	      299.3491515517	    -1421.5791225433	      538.0229353905	      378.1169173308	    -1380.2490234375	      320.3220665455	      366.1898747087	    -1356.7478656769	      220.3652858734	      366.7798703536	    -1334.7345590591	      274.5742201805	      295.7994788885	    -1305.4801225662	      103.7035360932	      311.5935251117	    -1243.4771060944	       62.6978799701	      347.6904407144	    -1392.3608064651	       91.6577279568	      360.9286658466	    -1365.8173084259	       63.7299045920	      311.2682923675	    -1417.7494049072	       41.0918220878	      292.6065549254	    -1431.6639900208	       46.3469177485	      417.0626550913	    -1479.8034429550	       61.4172406495	      380.9751680819	    -1113.9701008797	     1008.2026720047	      464.4315466285	     -300.7080554962	        0.0000000000	      382.1262419224	     -300.7080554962	        0.0000000000	      382.1262419224	     -300.7080554962	        0.0000000000	      382.1262419224	     -300.7080554962	        0.0000000000	      382.1262419224	     -300.7080554962	        0.0000000000	      382.1262419224	     -300.7080554962	        0.0000000000	      382.1262419224	     -300.7080554962	        0.0000000000	      382.1262419224	     -300.7080554962	        0.0000000000	      382.1262419224	     -300.7080554962	        0.0000000000	      382.1262419224	     -300.7080554962	        0.0000000000	      382.1262419224	     -300.7080554962	        0.0000000000	      382.1262419224	     -300.7080554962	        0.0000000000	      382.1262419224	     -300.7080554962	        0.0000000000	      382.1262419224
280	        2.7899999619	    -1231.0677766800	     1343.9323902130	      299.2925420403	    -1283.9909195900	     1368.2128190994	      571.3119953871	    -1196.5763568878	     1412.2860431671	      438.6344850063	    -1405.0457477570	     1095.2789783478	      546.6765612364	    -1370.6134557724	     1225.8782386780	      360.2685313672	    -1412.1916294098	     1140.6041383743	      275.6786793470	    -1404.3306112289	     1231.8277359009	      495.0576052070	    -1280.3449034691	      908.4300994873	      336.0336050391	    -1298.8938093185	      891.9127583504	      554.3106943369	    -1119.0767288208	      994.7664141655	      460.4795426130	    -1125.4981160164	      990.8246397972	      512.0802074671	    -1112.6552820206	      998.7081289291	      408.8788703084	    -1090.8680558205	      934.7724318504	      463.2142558694	    -1247.9388117790	      664.1914844513	      622.5082874298	    -1243.0182099342	      563.5125041008	      611.0234260559	    -1328.4133672714	      666.4660573006	      528.6287367344	    -1328.0689716339	      559.8558783531	      526.9446521997	    -1238.9878034592	      442.7073001862	      600.4841178656	    -1307.0451021194	      412.2067391872	      526.7693698406	    -1121.8147873878	      325.9069025517	      547.5495010614	    -1016.8342590332	      286.6027653217	      559.2946559191	    -1062.1786117554	      344.3191647530	      624.6428936720	     -893.6656713486	      265.5768394470	      624.6632784605	     -830.5386304855	      311.8003308773	      586.1222147942	     -905.2541851997	      182.7619224787	      567.2267228365	     -881.3850879669	      197.6025849581	      622.3466098309	     -857.9720854759	      141.5161043406	      653.9033651352	     -862.5247478485	      126.3176798820	      527.8737992048	     -902.9553532600	       97.0663726330	      557.5678497553	    -1268.1550383568	      699.2358565331	      263.3918598294	    -1317.5717592239	      609.3888878822	      283.8451564312	    -1363.1885051727	      737.4203205109	      370.3143978491	    -1392.1009302139	      648.6580967903	      374.8060935177	    -1367.2405481339	      503.0627250671	      297.9901805520	    -1428.5399913788	      536.4769697189	      376.3117222115	    -1383.8529586792	      319.5129930973	      365.0084305555	    -1358.8533401489	      219.9232727289	      366.2523068488	    -1337.1968269348	      274.2333710194	      295.1573655009	    -1305.9719800949	      103.7577539682	      311.9153901935	    -1243.5405254364	       63.1754845381	      348.0341732502	    -1392.6421403885	       91.4684012532	      361.1624035984	    -1365.8701181412	       63.8848841190	      311.4375248551	    -1417.7502393723	       41.0189256072	      292.4981117249	    -1431.7514896393	       46.3036224246	      416.9730916619	    -1480.1634550095	       60.9247609973	      380.7203256292	    -1127.2267103195	     1011.3873481750	      462.7009853721	     -300.7080554962	        0.0000000000	      382.1262419224	     -300.7080554962	        0.0000000000	      382.1262419224	     -300.7080554962	        0.0000000000	      382.1262419224	     -300.7080554962	        0.0000000000	      382.1262419224	     -300.7080554962	        0.0000000000	      382.1262419224	     -300.7080554962	        0.0000000000	      382.1262419224	     -300.7080554962	        0.0000000000	      382.1262419224	     -300.7080554962	        0.0000000000	      382.1262419224	     -300.7080554962	        0.0000000000	      382.1262419224	     -300.7080554962	        0.0000000000	      382.1262419224	     -300.7080554962	        0.0000000000	      382.1262419224	     -300.7080554962	        0.0000000000	      382.1262419224	     -300.7080554962	        0.0000000000	      382.1262419224
281	        2.7999999523	    -1244.6094155312	     1347.3137617111	      298.0926334858	    -1297.1107959747	     1371.4803457260	      570.1967030764	    -1210.0283503532	     1415.6990051270	      437.3648054898	    -1417.5230264664	     1098.1590747833	      545.7496196032	    -1383.8294744492	     1229.1216850281	      359.2758271843	    -1425.3695011139	     1143.5838937759	      275.0902846456	    -1417.3436164856	     1234.9082231522	      494.3162724376	    -1293.0999398232	      911.0735058784	      334.3297988176	    -1312.0203018188	      895.7139253616	      552.5931119919	    -1132.1675777435	      998.2417821884	      458.7147459388	    -1138.6324763298	      994.5167899132	      510.3296339512	    -1125.7026791573	     1001.9668340683	      407.0998523384	    -1103.9695739746	      938.2683634758	      461.7568328977	    -1266.1539316177	      668.5010194778	      620.4505860806	    -1265.7911777496	      568.0404901505	      607.8408956528	    -1348.0082750320	      673.6709475517	      526.9940048456	    -1351.8621921539	      567.7859187126	      524.3840366602	    -1267.7249312401	      447.7788805962	      595.9957093000	    -1337.1933698654	      419.6904897690	      521.8551009893	    -1152.8609991074	      330.3137719631	      542.8653210402	    -1048.4363436699	      290.1319861412	      554.5957833529	    -1092.9690003395	      348.9915430546	      619.7677850723	     -925.3500103951	      267.9914534092	      619.4880455732	     -860.2208495140	      312.4102950096	      581.3426375389	     -939.1686320305	      185.8491152525	      562.0042681694	     -914.9647951126	      199.8424679041	      617.0508414507	     -893.2815194130	      143.0753767490	      648.1783688068	     -898.5040783882	      128.2874494791	      522.2041308880	     -939.6394491196	      100.1383587718	      551.9327670336	    -1277.5349020958	      700.5774378777	      262.0633691549	    -1326.6470432281	      610.7251048088	      282.0970341563	    -1373.9833831787	      737.3365163803	      368.5124386102	    -1400.8228778839	      647.7043032646	      374.0003518760	    -1373.3017444611	      502.4971961975	      296.5603768826	    -1434.9395036697	      534.9249243736	      374.3102429435	    -1386.9622945786	      318.7952935696	      364.0139009804	    -1360.6244325638	      219.5480465889	      365.9204244614	    -1339.4563198090	      273.7103998661	      294.6618646383	    -1306.4082860947	      103.8255393505	      312.2406601906	    -1243.6100244522	       63.6557787657	      348.3944199979	    -1392.8836584091	       91.3109183311	      361.4115212113	    -1365.9017086029	       64.0908181667	      311.6069287062	    -1417.7515506744	       40.9780293703	      292.3935353756	    -1431.8307638168	       46.2829619646	      416.9514477253	    -1480.4993867874	       60.5089180171	      380.5105575593	    -1140.3180956841	     1014.8729085922	      460.8337581158	     -300.7080554962	        0.0000000000	      382.1262419224	     -300.7080554962	        0.0000000000	      382.1262419224	     -300.7080554962	        0.0000000000	      382.1262419224	     -300.7080554962	        0.0000000000	      382.1262419224	     -300.7080554962	        0.0000000000	      382.1262419224	     -300.7080554962	        0.0000000000	      382.1262419224	     -300.7080554962	        0.0000000000	      382.1262419224	     -300.7080554962	        0.0000000000	      382.1262419224	     -300.7080554962	        0.0000000000	      382.1262419224	     -300.7080554962	        0.0000000000	      382.1262419224	     -300.7080554962	        0.0000000000	      382.1262419224	     -300.7080554962	        0.0000000000	      382.1262419224	     -300.7080554962	        0.0000000000	      382.1262419224
282	        2.8099999428	    -1258.2073211670	     1350.8394956589	      296.9411686063	    -1310.2395534515	     1374.9302625656	      569.2056119442	    -1223.4717011452	     1419.2796945572	      436.1495971680	    -1429.8239946365	     1101.2684106827	      545.1314002275	    -1396.9271183014	     1232.3906421661	      358.5043344647	    -1438.4939670563	     1146.5579271317	      274.7430279851	    -1430.3206205368	     1238.1036281586	      493.7525913119	    -1305.8458566666	      913.8688445091	      332.7040560544	    -1325.0255584717	      899.9148011208	      550.9954690933	    -1145.1093554497	     1001.9334554672	      456.9598585367	    -1151.5781283379	      998.4412193298	      508.5718929768	    -1138.6405825615	     1005.4256916046	      405.3478166461	    -1116.9160604477	      941.9746398926	      460.2952748537	    -1284.2977643013	      673.2473373413	      618.6722368002	    -1289.0855669975	      573.0289220810	      605.0509214401	    -1367.7952289581	      681.5948486328	      525.8953720331	    -1375.6459951401	      576.6372084618	      522.4349200726	    -1296.1430549622	      454.0183842182	      591.8049514294	    -1367.1714067459	      428.3275902271	      517.3805654049	    -1184.2767000198	      334.8400294781	      538.3096188307	    -1080.5006623268	      292.9868996143	      549.8100817204	    -1123.7781047821	      353.1681299210	      615.0590777397	     -957.2893977165	      268.7517106533	      614.2424941063	     -890.2385830879	      311.0223412514	      576.2305706739	     -974.2568135262	      187.6216828823	      556.6403716803	     -949.4889974594	      200.5550116301	      611.6092205048	     -929.9327135086	      142.7794098854	      642.2328650951	     -936.2505078316	      128.8266927004	      516.5552049875	     -978.1016707420	      102.0451039076	      546.0513979197	    -1286.8170738220	      702.3670673370	      260.8268782496	    -1334.5543146133	      611.7908358574	      280.6672826409	    -1384.1979503632	      736.8985414505	      366.7019344866	    -1409.0852737427	      646.6897130013	      372.4491335452	    -1378.0025243759	      501.8113255501	      295.2270656824	    -1440.7342672348	      533.3921909332	      372.3782245070	    -1389.5598649979	      318.1615769863	      363.2460739464	    -1362.0898723602	      219.2228734493	      365.7180685550	    -1341.5241241455	      273.1835842133	      294.2701205611	    -1306.8069219589	      103.9176061749	      312.5363886356	    -1243.6755895615	       64.1843378544	      348.8140292466	    -1393.1049108505	       91.2008211017	      361.6335056722	    -1365.9348487854	       64.2971321940	      311.8164166808	    -1417.7644252777	       40.9792140126	      292.3382967710	    -1431.9003820419	       46.2541840971	      416.9517531991	    -1480.7617664337	       60.1272583008	      380.3443502402	    -1153.3125042915	     1018.5185670853	      458.9405283332	     -300.7080554962	        0.0000000000	      382.1262419224	     -300.7080554962	        0.0000000000	      382.1262419224	     -300.7080554962	        0.0000000000	      382.1262419224	     -300.7080554962	        0.0000000000	      382.1262419224	     -300.7080554962	        0.0000000000	      382.1262419224	     -300.7080554962	        0.0000000000	      382.1262419224	     -300.7080554962	        0.0000000000	      382.1262419224	     -300.7080554962	        0.0000000000	      382.1262419224	     -300.7080554962	        0.0000000000	      382.1262419224	     -300.7080554962	        0.0000000000	      382.1262419224	     -300.7080554962	        0.0000000000	      382.1262419224	     -300.7080554962	        0.0000000000	      382.1262419224	     -300.7080554962	        0.0000000000	      382.1262419224
